<?xml version="1.0" encoding="utf-8"?>
<!-- Generator: Adobe Illustrator 27.9.0, SVG Export Plug-In . SVG Version: 6.00 Build 0)  -->
<svg version="1.1" id="Laag_1" xmlns="http://www.w3.org/2000/svg" xmlns:xlink="http://www.w3.org/1999/xlink" x="0px" y="0px"
	 viewBox="0 0 169 134" style="enable-background:new 0 0 169 134;" xml:space="preserve">
<style type="text/css">
	.st0{fill:none;stroke:#000000;stroke-linecap:round;stroke-linejoin:round;}
</style>
<path class="st0" d="M79.5,9.7l29.4,17.2l-60.1,0.8L79.5,9.7z"/>
<path class="st0" d="M108.9,26.9l11.3,18l-10.5,17.2L108.9,26.9z"/>
<path class="st0" d="M109,26.9l11.3,18c0,0,0,0.1,0,0.2l-10.5,17.3c0,0-0.1,0.1-0.2,0.1c-0.1,0-0.2-0.1-0.2-0.2L108.7,27
	c0,0,0.1-0.1,0.1-0.2C108.8,26.7,108.9,26.7,109,26.9L109,26.9L109,26.9z M119.9,45l-10.8-17.4l0.7,34L119.9,45L119.9,45z"/>
<path class="st0" d="M108.9,26.9l0.7,35.3L78.9,79.4L108.9,26.9z"/>
<path class="st0" d="M109,27l0.7,35.3c0,0-0.1,0.1-0.1,0.2L78.9,79.5c0,0-0.1,0-0.2,0c-0.1,0-0.1-0.1,0-0.2l30-52.4
	c0,0,0.1-0.1,0.2-0.1c0,0,0,0,0.1,0C109,26.8,109,26.8,109,27L109,27z M109.4,62.1l-0.7-34.5L79.3,78.9L109.4,62.1z"/>
<path class="st0" d="M58.4,80.2l20.5-0.9L48.3,62.3L58.4,80.2z"/>
<path class="st0" d="M79,79.2c0,0,0.1,0.2,0.1,0.2c0,0.1-0.1,0.1-0.2,0.1l-20.4,0.9c0,0-0.1-0.1-0.2-0.1L48.1,62.4c0,0,0-0.1,0-0.2
	c0-0.1,0.2-0.1,0.2,0L79,79.2L79,79.2z M58.5,80.1l19.7-0.8L48.7,62.8L58.5,80.1z"/>
<path class="st0" d="M48.3,62.3l30.6,17.1L48.8,27.7L48.3,62.3z"/>
<path class="st0" d="M49,27.6L79,79.3c0,0,0,0.2,0,0.2c0,0.1-0.2,0.1-0.2,0L48.2,62.4c0,0-0.1-0.1-0.1-0.2l0.5-34.6
	c0,0,0.1-0.1,0.1-0.2C48.7,27.5,48.8,27.5,49,27.6C48.9,27.6,49,27.6,49,27.6z M78.4,78.9L49,28.4l-0.5,33.8L78.4,78.9L78.4,78.9z"
	/>
<path class="st0" d="M108.9,26.9l-30,52.4L48.8,27.7L108.9,26.9z"/>
<path class="st0" d="M109,26.9c0,0,0.1,0.1,0,0.2l-30,52.4c0,0-0.1,0.1-0.1,0.1c-0.1,0-0.1-0.1-0.2-0.1L48.7,27.8c0,0,0-0.1,0-0.2
	c0-0.1,0.1-0.1,0.1-0.1L109,26.9C108.9,26.8,109,26.8,109,26.9z M109,26.9L109,26.9 M78.9,79l29.7-51.9l-59.4,0.7L78.9,79L78.9,79z"
	/>
<path class="st0" d="M108.9,26.9l11.3,18l-10.5,17.2L108.9,26.9z"/>
<path class="st0" d="M108.9,26.9l0.7,35.3L78.9,79.4L108.9,26.9z"/>
<path class="st0" d="M58.4,80.2l20.5-0.9L48.3,62.3L58.4,80.2z"/>
<path class="st0" d="M48.3,62.3l30.6,17.1L48.8,27.7L48.3,62.3z"/>
<path class="st0" d="M108.9,26.9l-30,52.4L48.8,27.7L108.9,26.9z"/>
<path class="st0" d="M58.1,9.2l21.3,0.5l-30.7,18L58.1,9.2z"/>
<path d="M120.8,44.7c0,0,0-0.1-0.1-0.1l-11.1-17.8c0-0.1-0.1-0.2-0.2-0.3c0,0-0.1-0.1-0.1-0.1c0,0,0,0-0.1-0.1L79.8,9.1
	c0,0,0,0-0.1,0c0,0-0.1-0.1-0.1-0.1c-0.1,0-0.2-0.1-0.2-0.1L58.2,8.4c-0.3-0.1-0.6,0.1-0.7,0.4l-9.3,18.5c-0.1,0.2-0.1,0.4,0,0.6
	l-0.5,34.3c0,0.1,0,0.3,0.1,0.4c0,0,0,0,0,0l10.1,17.9c0,0.1,0.1,0.1,0.2,0.2l0.2,0.1c0.1,0,0.2,0.1,0.2,0.1c0,0,0,0,0,0l20.3-0.9
	c0,0,0.1,0,0.1,0c0,0,0,0,0.1,0c0,0,0,0,0,0c0,0,0,0,0,0c0,0,0.1,0,0.1,0c0,0,0,0,0,0c0.1,0,0.1-0.1,0.2-0.1l0,0c0,0,0,0,0,0
	c0,0,0,0,0.1,0l30.6-17c0,0,0,0,0.1-0.1c0,0,0,0,0,0c0.1,0,0.1-0.1,0.2-0.2l10.5-17.3C120.8,45.1,120.8,44.9,120.8,44.7z
	 M107.6,27.7L78.9,78L50,28.4L107.6,27.7z M49,61.9l0.5-31.7L77,77.5L50.4,62.7L49,61.9z M51.4,27l28.1-16.5l27,15.8L51.4,27z
	 M58.5,9.9L77,10.3L50.5,25.9L58.5,9.9z M50.1,64.1l13.2,7.4l13.2,7.4l-17.6,0.7L50.1,64.1z M80.8,77.5l27.4-48l0.7,32.3L80.8,77.5z
	 M110.2,59.9l-0.4-20.4l-0.2-10.1l9.7,15.6L110.2,59.9z"/>
<g>
	<polygon points="35.9,116.6 49.3,116.6 49.3,112.5 35.9,112.5 35.9,107.8 50.8,107.8 50.8,103.6 31.2,103.6 31.2,126 51.1,126 
		51.1,121.8 35.9,121.8 	"/>
	<polygon points="55.8,107.9 64.5,107.9 64.5,126 69.3,126 69.3,107.9 78.3,107.9 78.3,103.6 55.8,103.6 	"/>
	<polygon points="3.1,107.9 11.9,107.9 11.9,126 16.7,126 16.7,107.9 25.7,107.9 25.7,103.6 3.1,103.6 	"/>
	<path d="M97.2,114.7l-9-11.1h-4.4V126h4.7v-8c0-1.8,0-3.4-0.1-5c0-0.7-0.1-1.4-0.2-2.2l7.9,9.4h2.1l7.9-9.4
		c-0.1,0.7-0.1,1.5-0.2,2.2c-0.1,1.6-0.1,3.2-0.1,5v8h4.7v-22.4h-4.4L97.2,114.7z"/>
	<polygon points="143.1,103.6 143.1,107.9 151.9,107.9 151.9,126 156.7,126 156.7,107.9 165.6,107.9 165.6,103.6 	"/>
	<polygon points="123.2,116.6 136.6,116.6 136.6,112.5 123.2,112.5 123.2,107.8 138.2,107.8 138.2,103.6 118.5,103.6 118.5,126 
		138.4,126 138.4,121.8 123.2,121.8 	"/>
</g>
<path d="M76.8,58V39.4h-8.6v-3.8h21.6v3.8H81V58H76.8z"/>
</svg>
