<?xml version="1.0" encoding="UTF-8" standalone="no"?>
<!-- Generator: Adobe Illustrator 27.9.0, SVG Export Plug-In . SVG Version: 6.00 Build 0)  -->

<svg
   version="1.1"
   id="Laag_1"
   x="0px"
   y="0px"
   viewBox="0 0 169 134"
   style="enable-background:new 0 0 169 134;"
   xml:space="preserve"
   sodipodi:docname="logo_vector_black.svg"
   inkscape:version="1.4 (e7c3feb1, 2024-10-09)"
   xmlns:inkscape="http://www.inkscape.org/namespaces/inkscape"
   xmlns:sodipodi="http://sodipodi.sourceforge.net/DTD/sodipodi-0.dtd"
   xmlns="http://www.w3.org/2000/svg"
   xmlns:svg="http://www.w3.org/2000/svg"><defs
   id="defs22" /><sodipodi:namedview
   id="namedview22"
   pagecolor="#ffffff"
   bordercolor="#000000"
   borderopacity="0.25"
   inkscape:showpageshadow="2"
   inkscape:pageopacity="0.0"
   inkscape:pagecheckerboard="0"
   inkscape:deskcolor="#d1d1d1"
   inkscape:zoom="1.0383516"
   inkscape:cx="276.39964"
   inkscape:cy="35.15187"
   inkscape:window-width="1920"
   inkscape:window-height="1080"
   inkscape:window-x="0"
   inkscape:window-y="0"
   inkscape:window-maximized="0"
   inkscape:current-layer="Laag_1" />
<style
   type="text/css"
   id="style1">
	.st0{fill:none;stroke:#000000;stroke-linecap:round;stroke-linejoin:round;}
</style>
<path
   class="st0"
   d="M 85.770366,5.9059383 137.81354,36.352958 31.425977,37.769099 Z"
   id="path1"
   style="stroke-width:1.77018" />
<path
   class="st0"
   d="M 137.81354,36.352958 157.81652,68.21612 139.22968,98.663145 Z"
   id="path2"
   style="stroke-width:1.77018" />
<path
   class="st0"
   d="m 137.99055,36.352958 20.00299,31.863162 c 0,0 0,0.177017 0,0.354035 l -18.58685,30.62404 c 0,0 -0.17701,0.17702 -0.35403,0.17702 -0.17702,0 -0.35404,-0.17702 -0.35404,-0.35404 L 137.4595,36.529976 c 0,0 0.17702,-0.177018 0.17702,-0.354035 0,-0.177018 0.17702,-0.177018 0.35403,0.177017 z m 19.29492,32.040179 -19.1179,-30.801056 1.23912,60.185974 z"
   id="path3"
   style="stroke-width:1.77018" />
<path
   class="st0"
   d="m 137.81354,36.352958 1.23912,62.487197 -54.344394,30.447025 z"
   id="path4"
   style="stroke-width:1.77018" />
<path
   class="st0"
   d="m 137.99055,36.529976 1.23913,62.487199 c 0,0 -0.17702,0.17702 -0.17702,0.35404 L 84.708266,129.4642 c 0,0 -0.17702,0 -0.35404,0 -0.17702,0 -0.17702,-0.17702 0,-0.35403 L 137.4595,36.352958 c 0,0 0.17702,-0.177017 0.35404,-0.177017 0,0 0,0 0.17701,0 z M 138.69862,98.663145 137.4595,37.592081 85.416336,128.4021 Z"
   id="path5"
   style="stroke-width:1.77018" />
<path
   class="st0"
   d="M 48.419663,130.70332 84.708266,129.11017 30.540889,99.017175 Z"
   id="path6"
   style="stroke-width:1.77018" />
<path
   class="st0"
   d="m 84.885276,128.93315 c 0,0 0.17702,0.35403 0.17702,0.35403 0,0.17702 -0.17702,0.17702 -0.35403,0.17702 l -36.111586,1.59316 c 0,0 -0.177017,-0.17702 -0.354035,-0.17702 L 30.186854,99.194195 c 0,0 0,-0.17702 0,-0.35404 0,-0.17701 0.354035,-0.17701 0.354035,0 z M 48.59668,130.52631 83.469136,129.11017 31.248959,99.902265 Z"
   id="path7"
   style="stroke-width:1.77018" />
<path
   class="st0"
   d="M 30.540889,99.017175 84.708266,129.28718 31.425977,37.769099 Z"
   id="path8"
   style="stroke-width:1.77018" />
<path
   class="st0"
   d="m 31.780012,37.592081 53.105264,91.518089 c 0,0 0,0.35403 0,0.35403 0,0.17702 -0.35403,0.17702 -0.35403,0 L 30.363871,99.194195 c 0,0 -0.177017,-0.17702 -0.177017,-0.35404 l 0.885088,-61.248074 c 0,0 0.177017,-0.177017 0.177017,-0.354035 0,0.177018 0.177018,0.177018 0.531053,0.354035 -0.177018,0 0,0 0,0 z M 83.823176,128.4021 31.780012,39.008222 30.894924,98.840155 Z"
   id="path9"
   style="stroke-width:1.77018" />
<path
   class="st0"
   d="M 137.81354,36.352958 84.708266,129.11017 31.425977,37.769099 Z"
   id="path10"
   style="stroke-width:1.77018" />
<path
   class="st0"
   d="m 137.99055,36.352958 c 0,0 0.17702,0.177018 0,0.354036 L 84.885276,129.4642 c 0,0 -0.17701,0.17702 -0.17701,0.17702 -0.17702,0 -0.17702,-0.17702 -0.35404,-0.17702 L 31.248959,37.946116 c 0,0 0,-0.177017 0,-0.354035 0,-0.177017 0.177018,-0.177017 0.177018,-0.177017 L 137.99055,36.352958 c -0.17701,-0.177017 0,-0.177017 0,0 z m 0,0 v 0 M 84.708266,128.57911 137.28248,36.706994 32.134047,37.946116 Z"
   id="path11"
   style="stroke-width:1.77018" />
<path
   class="st0"
   d="M 137.81354,36.352958 157.81652,68.21612 139.22968,98.663145 Z"
   id="path12"
   style="stroke-width:1.77018" />
<path
   class="st0"
   d="m 137.81354,36.352958 1.23912,62.487197 -54.344394,30.447025 z"
   id="path13"
   style="stroke-width:1.77018" />
<path
   class="st0"
   d="M 48.419663,130.70332 84.708266,129.11017 30.540889,99.017175 Z"
   id="path14"
   style="stroke-width:1.77018" />
<path
   class="st0"
   d="M 30.540889,99.017175 84.708266,129.28718 31.425977,37.769099 Z"
   id="path15"
   style="stroke-width:1.77018" />
<path
   class="st0"
   d="M 137.81354,36.352958 84.708266,129.11017 31.425977,37.769099 Z"
   id="path16"
   style="stroke-width:1.77018" />
<path
   class="st0"
   d="M 47.88861,5.0208503 85.593346,5.9059383 31.248959,37.769099 Z"
   id="path17"
   style="stroke-width:1.77018" />
<path
   d="m 158.87863,67.862084 c 0,0 0,-0.177017 -0.17702,-0.177017 L 139.05266,36.175941 c 0,-0.177018 -0.17702,-0.354035 -0.35404,-0.531053 0,0 -0.17701,-0.177017 -0.17701,-0.177017 0,0 0,0 -0.17702,-0.177018 L 86.301416,4.8438328 c 0,0 0,0 -0.17701,0 0,0 -0.17702,-0.1770176 -0.17702,-0.1770176 -0.17702,0 -0.35404,-0.1770175 -0.35404,-0.1770175 L 48.065628,3.6047098 C 47.534575,3.4276923 47.003522,3.7817274 46.826505,4.3127801 L 30.363871,37.061029 c -0.177017,0.354035 -0.177017,0.70807 0,1.062105 l -0.885087,60.717021 c 0,0.17702 0,0.53106 0.177017,0.70807 0,0 0,0 0,0 l 17.878774,31.686155 c 0,0.17701 0.177017,0.17701 0.354035,0.35403 l 0.354035,0.17702 c 0.177018,0 0.354035,0.17702 0.354035,0.17702 0,0 0,0 0,0 l 35.934566,-1.59316 c 0,0 0.17702,0 0.17702,0 0,0 0,0 0.17701,0 0,0 0,0 0,0 0,0 0,0 0,0 0,0 0.17702,0 0.17702,0 0,0 0,0 0,0 0.17702,0 0.17702,-0.17702 0.35404,-0.17702 v 0 c 0,0 0,0 0,0 0,0 0,0 0.17701,0 l 54.167384,-30.09298 c 0,0 0,0 0.17702,-0.177025 0,0 0,0 0,0 0.17701,0 0.17701,-0.17702 0.35403,-0.35404 L 158.87863,68.92419 c 0,-0.354035 0,-0.70807 0,-1.062106 z M 135.51231,37.769099 84.708266,126.80894 33.550187,39.008222 Z M 31.780012,98.309105 32.6651,42.194538 81.344929,125.92385 34.258258,99.725245 Z M 36.028433,36.529976 85.770366,7.3220783 133.56511,35.290853 Z M 48.59668,6.2599733 81.344929,6.9680433 34.435275,34.582783 Z M 33.727205,102.2035 l 23.366318,13.0993 23.366318,13.0993 -31.155091,1.23912 z m 54.344391,23.72035 48.502814,-84.968435 1.23913,57.17667 z m 52.043164,-31.155096 -0.70807,-36.111583 -0.35403,-17.878774 17.1707,27.61474 z"
   id="path18"
   style="stroke-width:1.77018" />

<path
   d="M 80.990894,91.40542 V 58.480154 h -15.22351 v -6.726668 h 38.235796 v 6.726668 H 88.425636 V 91.40542 Z"
   id="path22"
   style="stroke-width:1.77018" />
</svg>
